<?xml version="1.0" standalone="no"?>
<!DOCTYPE svg PUBLIC "-//W3C//DTD SVG 20010904//EN"
 "http://www.w3.org/TR/2001/REC-SVG-20010904/DTD/svg10.dtd">
<svg version="1.0" xmlns="http://www.w3.org/2000/svg"
 width="300.000000pt" height="313.000000pt" viewBox="0 0 300.000000 313.000000"
 preserveAspectRatio="xMidYMid meet">
<metadata>
Created by potrace 1.10, written by Peter Selinger 2001-2011
</metadata>
<g transform="translate(0.000000,313.000000) scale(0.100000,-0.100000)"
fill="#000000" stroke="none">
<path d="M246 2995 c-47 -17 -83 -42 -107 -76 -17 -22 -18 -98 -24 -1170 -8
-1288 -13 -1194 66 -1239 32 -17 66 -24 148 -31 58 -4 569 -71 1134 -149 565
-77 1032 -138 1038 -134 6 3 9 35 8 72 l-3 67 42 23 c41 23 41 23 152 7 62 -8
116 -13 121 -9 5 3 9 474 9 1165 0 919 -3 1161 -12 1164 -7 2 -314 45 -683 96
-369 50 -715 97 -770 105 -55 7 -215 29 -355 48 -554 77 -689 88 -764 61z
m138 -24 c3 -4 -19 -11 -50 -14 -75 -8 -125 -34 -146 -77 -13 -29 -18 -32 -23
-17 -16 39 48 89 138 106 58 12 75 12 81 2z m266 -33 c0 -6 -10 -8 -22 -4 -13
3 -33 6 -45 6 -13 0 -23 3 -23 8 0 4 20 6 45 4 25 -2 45 -9 45 -14z m725 -93
c341 -47 782 -108 980 -135 198 -28 377 -53 398 -56 l37 -6 0 -1122 c0 -618
-2 -1125 -4 -1127 -8 -8 -86 3 -86 11 0 5 12 10 28 12 l27 3 3 1089 c1 600 -1
1093 -5 1097 -5 5 -55 15 -113 24 -289 43 -1721 256 -1827 272 -68 10 -123 21
-123 26 0 5 15 7 33 3 17 -3 311 -44 652 -91z m-525 19 c239 -36 460 -69 490
-74 30 -4 303 -45 605 -90 662 -98 610 -88 562 -105 -36 -12 -65 -31 -79 -50
-4 -5 -69 0 -170 13 -208 29 -572 79 -708 97 -784 107 -1287 176 -1306 181
-44 11 -22 54 38 73 48 14 69 19 103 20 17 0 226 -29 465 -65z m-600 -70 c36
-7 68 -14 73 -14 4 0 7 -508 7 -1130 l0 -1130 -27 0 c-46 0 -98 19 -121 43
l-22 23 -2 1117 c-3 990 -1 1117 12 1111 8 -3 44 -12 80 -20z m335 -48 c94
-14 240 -34 325 -46 190 -25 1368 -185 1465 -199 39 -6 76 -11 83 -11 11 0 13
-202 11 -1130 -3 -1015 -5 -1130 -19 -1126 -8 3 -51 10 -95 16 -44 6 -505 69
-1024 140 -520 72 -949 130 -953 130 -4 0 -8 509 -8 1130 l0 1130 23 -4 c12
-3 99 -16 192 -30z m2135 -1229 l0 -1063 -57 -12 c-32 -7 -80 -23 -108 -35
l-50 -24 3 1061 2 1061 -21 16 c-22 16 -21 16 22 32 24 9 51 18 59 21 8 2 45
5 83 5 l67 1 0 -1063z"/>
<path d="M240 1666 c0 -731 3 -1086 10 -1086 14 0 13 2157 0 2165 -7 4 -10
-389 -10 -1079z"/>
<path d="M1100 2634 c94 -24 1172 -264 1186 -264 7 0 15 -4 18 -9 3 -5 19
-175 36 -377 17 -203 32 -387 34 -409 2 -22 15 -165 27 -317 13 -152 26 -275
29 -273 3 2 1 68 -6 147 -7 79 -15 188 -19 243 -3 55 -8 107 -10 115 -2 8 -6
60 -10 115 -6 104 -8 124 -25 320 -14 164 -18 216 -26 320 -3 50 -12 100 -20
112 -13 20 -49 32 -194 63 -131 28 -338 74 -405 90 -44 11 -91 21 -105 24 -33
6 -95 19 -210 45 -258 58 -444 92 -300 55z"/>
<path d="M415 2165 c4 -117 68 -1519 69 -1522 1 -1 141 -28 311 -62 1301 -253
1215 -237 1203 -226 -3 3 -54 15 -114 26 -60 12 -149 29 -199 39 -49 10 -182
36 -295 58 -113 22 -218 43 -235 46 -16 4 -39 8 -50 10 -208 38 -592 119 -599
126 -9 9 -16 124 -30 460 -4 80 -8 181 -11 225 -3 44 -7 130 -10 190 -13 293
-36 702 -40 720 -2 11 -2 -29 0 -90z"/>
<path d="M2564 2355 c0 -77 2 -107 3 -67 2 40 2 103 0 140 -2 37 -3 4 -3 -73z"/>
<path d="M2553 2005 c0 -44 2 -61 4 -37 2 23 2 59 0 80 -2 20 -4 1 -4 -43z"/>
<path d="M2891 2683 c13 -59 11 -2303 -2 -2342 -20 -56 -52 -65 -180 -46 -60
9 -113 13 -119 10 -5 -3 -10 -27 -10 -53 0 -58 -27 -114 -60 -125 -17 -6 -359
37 -1086 137 -584 80 -1082 146 -1107 146 -72 0 -141 18 -194 52 l-48 30 35
-37 c53 -56 84 -68 195 -76 89 -6 225 -24 940 -123 551 -77 1148 -159 1200
-165 106 -14 165 39 150 134 -3 24 -2 46 3 49 5 3 44 -1 87 -9 125 -24 161
-21 201 19 l34 34 0 1165 0 1166 -21 35 c-12 20 -22 36 -24 36 -2 0 1 -17 6
-37z"/>
</g>
</svg>
